Coordinates
version=1
nRows=54
nColumns=12
inDegrees=yes

Units are S.I. units (second, meters, Newtons, ...)
Angles are in degrees

endheader
time	SC_y	SC_z	SC_x	AC_y	AC_z	AC_x	GH_y	GH_z	GH_yy	EL_x	PS_y
       0.0              -22.78          10.98          24.87          35.91           5.82         -17.49          129.8          56.29          -46.6          109.0          142.3
     0.015              -22.78          10.99          24.87          35.91          5.816         -17.49          129.7          56.29          -46.6          109.0          142.3
      0.03              -22.78          10.99          24.87          35.91          5.813         -17.49          129.7          56.29          -46.6          109.0          142.3
   0.04499              -22.78          10.99          24.87          35.91          5.809         -17.49          129.7           56.3         -46.59          109.0          142.2
   0.05999              -22.78           11.0          24.87           35.9          5.805         -17.49          129.6           56.3         -46.59          108.9          142.2
   0.07499              -22.78           11.0          24.87           35.9          5.801         -17.49          129.6           56.3         -46.58          108.9          142.2
   0.08999              -22.78           11.0          24.87           35.9          5.797         -17.48          129.5           56.3         -46.58          108.9          142.2
     0.105              -22.78          11.01          24.87           35.9          5.792         -17.48          129.5           56.3         -46.58          108.9          142.1
      0.12              -22.78          11.01          24.87           35.9          5.787         -17.48          129.4          56.31         -46.57          108.9          142.1
     0.135              -22.78          11.01          24.87           35.9          5.781         -17.48          129.4          56.31         -46.56          108.9          142.1
      0.15              -22.78          11.02          24.87           35.9          5.775         -17.48          129.3          56.31         -46.56          108.9          142.0
     0.165              -22.78          11.02          24.87           35.9          5.769         -17.47          129.3          56.32         -46.55          108.8          142.0
      0.18              -22.78          11.03          24.87          35.89          5.762         -17.47          129.2          56.32         -46.54          108.8          142.0
     0.195              -22.78          11.03          24.87          35.89          5.755         -17.47          129.1          56.32         -46.54          108.8          141.9
      0.21              -22.78          11.04          24.87          35.89          5.747         -17.47          129.1          56.33         -46.53          108.8          141.9
     0.225              -22.78          11.05          24.88          35.89          5.738         -17.46          129.0          56.33         -46.52          108.7          141.8
      0.24              -22.78          11.05          24.88          35.89          5.729         -17.46          128.9          56.33         -46.51          108.7          141.8
     0.255              -22.78          11.06          24.88          35.88          5.718         -17.46          128.8          56.34          -46.5          108.7          141.7
      0.27              -22.78          11.07          24.88          35.88          5.707         -17.45          128.7          56.35         -46.49          108.7          141.6
     0.285              -22.78          11.08          24.88          35.88          5.695         -17.45          128.6          56.35         -46.47          108.6          141.6
       0.3              -22.78          11.09          24.88          35.87          5.681         -17.44          128.5          56.36         -46.46          108.6          141.5
     0.315              -22.78           11.1          24.88          35.87          5.667         -17.44          128.3          56.36         -46.44          108.5          141.4
      0.33              -22.78          11.12          24.89          35.87           5.65         -17.43          128.2          56.37         -46.43          108.5          141.3
     0.345              -22.78          11.13          24.89          35.86          5.632         -17.42          128.0          56.38         -46.41          108.4          141.2
      0.36              -22.78          11.14          24.89          35.86          5.612         -17.42          127.8          56.39         -46.39          108.4          141.1
     0.375              -22.78          11.16          24.89          35.85          5.589         -17.41          127.6           56.4         -46.36          108.3          140.9
      0.39              -22.78          11.18           24.9          35.85          5.564          -17.4          127.4          56.41         -46.34          108.2          140.8
     0.405              -22.78           11.2           24.9          35.84          5.536         -17.39          127.1          56.43         -46.31          108.2          140.6
      0.42              -22.78          11.23           24.9          35.83          5.504         -17.38          126.8          56.44         -46.28          108.1          140.4
    0.4349              -22.78          11.26          24.91          35.82          5.467         -17.37          126.4          56.46         -46.24          108.0          140.2
    0.4499              -22.78          11.29          24.91          35.81          5.426         -17.35          126.1          56.48         -46.19          107.8          140.0
    0.4649              -22.78          11.32          24.92           35.8          5.378         -17.33          125.6           56.5         -46.15          107.7          139.7
    0.4799              -22.78          11.37          24.93          35.79          5.323         -17.31          125.1          56.53         -46.09          107.5          139.3
    0.4949              -22.78          11.42          24.93          35.77          5.259         -17.29          124.5          56.56         -46.02          107.3          139.0
    0.5099              -22.79          11.47          24.94          35.75          5.184         -17.26          123.8           56.6         -45.94          107.1          138.5
    0.5249              -22.79          11.54          24.95          35.73          5.096         -17.23          123.0          56.64         -45.85          106.9          138.0
    0.5399              -22.79          11.62          24.97           35.7          4.991         -17.19          122.0          56.69         -45.74          106.6          137.3
    0.5549              -22.79          11.72          24.98          35.67          4.865         -17.15          120.8          56.75         -45.61          106.2          136.6
    0.5699              -22.79          11.84           25.0          35.64          4.713         -17.09          119.4          56.82         -45.46          105.8          135.7
    0.5849              -22.79          11.98          25.02          35.59          4.527         -17.03          117.6          56.91         -45.26          105.2          134.6
    0.5999              -22.79          12.16          25.05          35.53          4.297         -16.94          115.5          57.02         -45.02          104.6          133.2
    0.6149               -22.8          12.38          25.08          35.46          4.011         -16.84          112.8          57.16         -44.73          103.7          131.5
    0.6299               -22.8          12.65          25.13          35.37          3.651         -16.71          109.4          57.33         -44.35          102.7          129.3
    0.6449              -22.81          13.01          25.18          35.26          3.193         -16.54          105.1          57.55         -43.88          101.3          126.6
    0.6599              -22.81          13.46          25.25          35.12          2.606         -16.33          99.58          57.83         -43.27          99.63          123.1
    0.6749              -22.82          14.04          25.34          34.93          1.854         -16.06          92.51          58.19         -42.49          97.44          118.6
    0.6899              -22.83          14.78          25.46          34.69         0.8926         -15.71          83.49          58.65         -41.49          94.65          112.8
    0.7049              -22.84          15.71          25.61           34.4        -0.3161         -15.28          72.14          59.23         -40.24          91.13          105.6
    0.7199              -22.86          16.84          25.78          34.03         -1.789         -14.75           58.3          59.94         -38.71          86.85          96.76
    0.7349              -22.88          18.15          25.99          33.61         -3.496         -14.13          42.27          60.76         -36.94          81.88          86.53
    0.7499               -22.9          19.57          26.21          33.16         -5.345         -13.46          24.91          61.64         -35.02          76.51          75.47
    0.7649              -22.92           21.0          26.43           32.7         -7.193         -12.79          7.549          62.53          -33.1          71.13           64.4
    0.7799              -22.93          22.31          26.64          32.28         -8.901         -12.18         -8.484          63.35         -31.33          66.16          54.18
    0.7949              -22.95          23.44          26.82          31.92         -10.37         -11.65         -22.32          64.05          -29.8          61.88          45.36
